<svg id="visual" viewBox="0 0 900 600" width="900" height="600" xmlns="http://www.w3.org/2000/svg" xmlns:xlink="http://www.w3.org/1999/xlink" version="1.1"><rect x="0" y="0" width="900" height="600" fill="#E5E5E5"></rect><defs><linearGradient id="grad1_0" x1="33.3%" y1="100%" x2="100%" y2="0%"><stop offset="20%" stop-color="#c5c9df" stop-opacity="1"></stop><stop offset="80%" stop-color="#c5c9df" stop-opacity="1"></stop></linearGradient></defs><defs><linearGradient id="grad1_1" x1="33.3%" y1="100%" x2="100%" y2="0%"><stop offset="20%" stop-color="#c5c9df" stop-opacity="1"></stop><stop offset="80%" stop-color="#d0d2e1" stop-opacity="1"></stop></linearGradient></defs><defs><linearGradient id="grad1_2" x1="33.3%" y1="100%" x2="100%" y2="0%"><stop offset="20%" stop-color="#dadce3" stop-opacity="1"></stop><stop offset="80%" stop-color="#d0d2e1" stop-opacity="1"></stop></linearGradient></defs><defs><linearGradient id="grad1_3" x1="33.3%" y1="100%" x2="100%" y2="0%"><stop offset="20%" stop-color="#dadce3" stop-opacity="1"></stop><stop offset="80%" stop-color="#e5e5e5" stop-opacity="1"></stop></linearGradient></defs><defs><linearGradient id="grad2_0" x1="0%" y1="100%" x2="66.7%" y2="0%"><stop offset="20%" stop-color="#c5c9df" stop-opacity="1"></stop><stop offset="80%" stop-color="#c5c9df" stop-opacity="1"></stop></linearGradient></defs><defs><linearGradient id="grad2_1" x1="0%" y1="100%" x2="66.7%" y2="0%"><stop offset="20%" stop-color="#d0d2e1" stop-opacity="1"></stop><stop offset="80%" stop-color="#c5c9df" stop-opacity="1"></stop></linearGradient></defs><defs><linearGradient id="grad2_2" x1="0%" y1="100%" x2="66.7%" y2="0%"><stop offset="20%" stop-color="#d0d2e1" stop-opacity="1"></stop><stop offset="80%" stop-color="#dadce3" stop-opacity="1"></stop></linearGradient></defs><defs><linearGradient id="grad2_3" x1="0%" y1="100%" x2="66.7%" y2="0%"><stop offset="20%" stop-color="#e5e5e5" stop-opacity="1"></stop><stop offset="80%" stop-color="#dadce3" stop-opacity="1"></stop></linearGradient></defs><g transform="translate(900, 600)"><path d="M-405.6 0C-400.4 -53.4 -395.3 -106.8 -374.7 -155.2C-354.2 -203.6 -318.4 -247 -277.2 -277.2C-236 -307.4 -189.4 -324.5 -142.4 -343.7C-95.3 -362.9 -47.6 -384.3 0 -405.6L0 0Z" fill="#e0e0e4"></path><path d="M-304.2 0C-300.3 -40.1 -296.4 -80.1 -281.1 -116.4C-265.7 -152.7 -238.8 -185.2 -207.9 -207.9C-177 -230.5 -142.1 -243.4 -106.8 -257.8C-71.5 -272.2 -35.7 -288.2 0 -304.2L0 0Z" fill="#d5d7e2"></path><path d="M-202.8 0C-200.2 -26.7 -197.6 -53.4 -187.4 -77.6C-177.1 -101.8 -159.2 -123.5 -138.6 -138.6C-118 -153.7 -94.7 -162.2 -71.2 -171.8C-47.6 -181.4 -23.8 -192.1 0 -202.8L0 0Z" fill="#cacee0"></path><path d="M-101.4 0C-100.1 -13.4 -98.8 -26.7 -93.7 -38.8C-88.6 -50.9 -79.6 -61.7 -69.3 -69.3C-59 -76.8 -47.4 -81.1 -35.6 -85.9C-23.8 -90.7 -11.9 -96.1 0 -101.4L0 0Z" fill="#c5c9df"></path></g><g transform="translate(0, 0)"><path d="M405.6 0C375.5 45.5 345.4 91.1 322.4 133.6C299.5 176 283.7 215.4 258.8 258.8C233.9 302.2 199.9 349.6 155.2 374.7C110.6 399.9 55.3 402.8 0 405.6L0 0Z" fill="#e0e0e4"></path><path d="M304.2 0C281.6 34.2 259 68.3 241.8 100.2C224.6 132 212.8 161.6 194.1 194.1C175.4 226.6 149.9 262.2 116.4 281.1C82.9 299.9 41.5 302.1 0 304.2L0 0Z" fill="#d5d7e2"></path><path d="M202.8 0C187.8 22.8 172.7 45.5 161.2 66.8C149.7 88 141.9 107.7 129.4 129.4C117 151.1 99.9 174.8 77.6 187.4C55.3 199.9 27.6 201.4 0 202.8L0 0Z" fill="#cacee0"></path><path d="M101.4 0C93.9 11.4 86.3 22.8 80.6 33.4C74.9 44 70.9 53.9 64.7 64.7C58.5 75.5 50 87.4 38.8 93.7C27.6 100 13.8 100.7 0 101.4L0 0Z" fill="#c5c9df"></path></g></svg>